{
  "source": "C:\\Users\\Peter\\Desktop\\stuff\\MIUN\\quantitative_research\\video_compression\\videos\\BVI-HD\\BVI-HD_CDVL_videos\\ORIG\\Lightreef_1920x1080_30fps.mp4",
  "output": "C:\\Users\\Peter\\Desktop\\stuff\\MIUN\\quantitative_research\\video_compression\\compressed_videos\\BVI-HD\\h264\\1.5\\Lightreef_1920x1080_30fps_h264.mp4",
  "codec": "h264",
  "ok": "Input #0, mov,mp4,m4a,3gp,3g2,mj2, from 'C:\\Users\\Peter\\Desktop\\stuff\\MIUN\\quantitative_research\\video_compression\\videos\\BVI-HD\\BVI-HD_CDVL_videos\\ORIG\\Lightreef_1920x1080_30fps.mp4':\n  Metadata:\n    major_brand     : isom\n    minor_version   : 512\n    compatible_brands: isomiso2avc1mp41\n    encoder         : Lavf54.28.101\n  Duration: 00:00:05.00, start: 0.000000, bitrate: 361719 kb/s\n  Stream #0:0[0x1](und): Video: h264 (High 4:4:4 Predictive) (avc1 / 0x31637661), yuv420p(progressive), 1920x1080, 361715 kb/s, 30 fps, 30 tbr, 30 tbn (default)\n    Metadata:\n      handler_name    : VideoHandler\n      vendor_id       : [0][0][0][0]\n[out#0/mp4 @ 000002516547f200] Codec AVOption b:a (set bitrate (in bits/s)) has not been used for any stream. The most likely reason is either wrong type (e.g. a video option with no video streams) or that it is a private option of some decoder which was not actually used for any stream.\nStream mapping:\n  Stream #0:0 -> #0:0 (h264 (native) -> h264 (libx264))\nPress [q] to stop, [?] for help\n[libx264 @ 0000025165280c00] using cpu capabilities: MMX2 SSE2Fast SSSE3 SSE4.2 AVX FMA3 BMI2 AVX2\n[libx264 @ 0000025165280c00] profile High, level 5.0, 4:2:0, 8-bit\n[libx264 @ 0000025165280c00] 264 - core 165 r3222 b35605a - H.264/MPEG-4 AVC codec - Copyleft 2003-2025 - http://www.videolan.org/x264.html - options: cabac=1 ref=5 deblock=1:0:0 analyse=0x3:0x113 me=hex subme=8 psy=1 psy_rd=1.00:0.00 mixed_ref=1 me_range=16 chroma_me=1 trellis=2 8x8dct=1 cqm=0 deadzone=21,11 fast_pskip=1 chroma_qp_offset=-2 threads=18 lookahead_threads=3 sliced_threads=0 nr=0 decimate=1 interlaced=0 bluray_compat=0 constrained_intra=0 bframes=3 b_pyramid=2 b_adapt=1 b_bias=0 direct=3 weightb=1 open_gop=0 weightp=2 keyint=250 keyint_min=25 scenecut=40 intra_refresh=0 rc_lookahead=50 rc=cbr mbtree=1 bitrate=1500 ratetol=1.0 qcomp=0.60 qpmin=0 qpmax=69 qpstep=4 vbv_maxrate=1500 vbv_bufsize=1500 nal_hrd=none filler=0 ip_ratio=1.40 aq=1:1.00\nOutput #0, mp4, to 'C:\\Users\\Peter\\Desktop\\stuff\\MIUN\\quantitative_research\\video_compression\\compressed_videos\\BVI-HD\\h264\\1.5\\Lightreef_1920x1080_30fps_h264.mp4':\n  Metadata:\n    major_brand     : isom\n    minor_version   : 512\n    compatible_brands: isomiso2avc1mp41\n    encoder         : Lavf62.3.100\n  Stream #0:0(und): Video: h264 (avc1 / 0x31637661), yuv420p(tv, progressive), 1920x1080, q=2-31, 1500 kb/s, 30 fps, 15360 tbn (default)\n    Metadata:\n      encoder         : Lavc62.11.100 libx264\n      handler_name    : VideoHandler\n      vendor_id       : [0][0][0][0]\n    Side data:\n      cpb: bitrate max/min/avg: 1500000/0/1500000 buffer size: 1500000 vbv_delay: N/A\nframe=    0 fps=0.0 q=0.0 size=       0KiB time=N/A bitrate=N/A speed=N/A elapsed=0:00:00.51    \nframe=    0 fps=0.0 q=0.0 size=       0KiB time=N/A bitrate=N/A speed=N/A elapsed=0:00:01.06    \nframe=    4 fps=2.5 q=50.0 size=       0KiB time=N/A bitrate=N/A speed=N/A elapsed=0:00:01.58    \nframe=   29 fps= 13 q=45.0 size=       0KiB time=00:00:00.86 bitrate=   0.4kbits/s speed=0.401x elapsed=0:00:02.16    \nframe=   56 fps= 20 q=45.0 size=       0KiB time=00:00:01.70 bitrate=   0.2kbits/s speed=0.616x elapsed=0:00:02.75    \nframe=   91 fps= 27 q=45.0 size=     256KiB time=00:00:02.83 bitrate= 740.3kbits/s speed=0.853x elapsed=0:00:03.32    \nframe=  130 fps= 34 q=45.0 size=     512KiB time=00:00:04.26 bitrate= 983.1kbits/s speed= 1.1x elapsed=0:00:03.86    \n[mp4 @ 0000025164709a40] Starting second pass: moving the moov atom to the beginning of the file\n[out#0/mp4 @ 000002516547f200] video:782KiB audio:0KiB subtitle:0KiB other streams:0KiB global headers:0KiB muxing overhead: 0.328891%\nframe=  150 fps= 37 q=-1.0 Lsize=     785KiB time=00:00:04.93 bitrate=1303.5kbits/s speed= 1.2x elapsed=0:00:04.09    \n[libx264 @ 0000025165280c00] frame I:1     Avg QP:44.14  size: 38852\n[libx264 @ 0000025165280c00] frame P:38    Avg QP:45.16  size: 12044\n[libx264 @ 0000025165280c00] frame B:111   Avg QP:49.13  size:  2738\n[libx264 @ 0000025165280c00] consecutive B-frames:  0.7%  0.0%  6.0% 93.3%\n[libx264 @ 0000025165280c00] mb I  I16..4: 34.1% 60.9%  5.0%\n[libx264 @ 0000025165280c00] mb P  I16..4:  2.7%  2.1%  0.0%  P16..4: 40.1%  2.5%  6.3%  0.0%  0.0%    skip:46.2%\n[libx264 @ 0000025165280c00] mb B  I16..4:  0.0%  0.0%  0.0%  B16..8: 30.8%  0.2%  0.0%  direct: 0.2%  skip:68.8%  L0:38.1% L1:61.6% BI: 0.2%\n[libx264 @ 0000025165280c00] 8x8 transform intra:49.8% inter:90.3%\n[libx264 @ 0000025165280c00] direct mvs  spatial:91.0% temporal:9.0%\n[libx264 @ 0000025165280c00] coded y,uvDC,uvAC intra: 21.1% 42.2% 5.4% inter: 3.0% 7.6% 0.0%\n[libx264 @ 0000025165280c00] i16 v,h,dc,p: 30% 34%  8% 28%\n[libx264 @ 0000025165280c00] i8 v,h,dc,ddl,ddr,vr,hd,vl,hu:  4%  3% 33%  8% 14%  8% 14%  5% 11%\n[libx264 @ 0000025165280c00] i4 v,h,dc,ddl,ddr,vr,hd,vl,hu:  3%  3%  8% 13% 18% 12% 18%  6% 19%\n[libx264 @ 0000025165280c00] i8c dc,h,v,p: 65% 21%  9%  5%\n[libx264 @ 0000025165280c00] Weighted P-Frames: Y:47.4% UV:26.3%\n[libx264 @ 0000025165280c00] ref P L0: 62.8%  4.8% 14.7%  7.2%  6.4%  4.1%\n[libx264 @ 0000025165280c00] ref B L0: 94.0%  4.3%  1.2%  0.5%\n[libx264 @ 0000025165280c00] ref B L1: 98.5%  1.5%\n[libx264 @ 0000025165280c00] kb/s:1280.67\n",
  "seconds": 4.405827760696411,
  "probe_out": {}
}